<?xml version="1.0" encoding="utf-8"?>
<!-- Generator: Adobe Illustrator 26.0.2, SVG Export Plug-In . SVG Version: 6.00 Build 0)  -->
<svg version="1.1" id="Layer_1" xmlns="http://www.w3.org/2000/svg" xmlns:xlink="http://www.w3.org/1999/xlink" x="0px" y="0px"
	 viewBox="0 0 85 85" style="enable-background:new 0 0 85 85;" xml:space="preserve">
<style type="text/css">
	.st0{fill:#353535;}
	.st1{fill-rule:evenodd;clip-rule:evenodd;fill:#FFFFFF;}
	.st2{fill:#FFFFFF;}
</style>
<circle id="back-67" class="st0" cx="42.5" cy="42.5" r="42.5"/>
<g id="Github-8">
	<path class="st1" d="M42.5,19.3c-13.1,0-23.8,10.7-23.8,23.8c0,10.2,6.6,19.3,16.3,22.6c1.2,0.2,1.6-0.5,1.6-1.1v-4.4
		c-6.6,1.4-8-2.8-8-2.8c-1.1-2.7-2.6-3.5-2.6-3.5c-2.2-1.5,0.2-1.4,0.2-1.4c1.5,0.2,2.9,1.1,3.6,2.5c2.1,3.6,5.6,2.6,6.9,2
		c0.1-1.2,0.6-2.3,1.5-3.2C32.9,53,27.4,51,27.4,41.9c0-2.4,0.9-4.6,2.5-6.4c-0.7-2.1-0.6-4.3,0.2-6.3c0,0,2-0.6,6.5,2.4
		c3.9-1.1,8-1.1,11.9,0c4.5-3.1,6.5-2.4,6.5-2.4c0.9,2,1,4.2,0.2,6.3c1.6,1.7,2.5,4,2.5,6.4c0,9.1-5.6,11.1-10.9,11.8
		c1.1,1.2,1.7,2.8,1.6,4.4v6.5c0,0.6,0.4,1.4,1.6,1.1c12.5-4.2,19.2-17.7,15-30.1C61.9,25.9,52.8,19.3,42.5,19.3L42.5,19.3z"/>
	<path class="st2" d="M27.7,53.5c0,0.1-0.2,0.2-0.4,0.1s-0.3-0.2-0.2-0.4s0.2-0.2,0.4-0.1S27.8,53.3,27.7,53.5z"/>
	<path class="st2" d="M28.7,54.5c-0.1,0.1-0.3,0.1-0.5-0.1c-0.1-0.1-0.2-0.3-0.1-0.5c0.1-0.1,0.3-0.1,0.5,0.1S28.8,54.4,28.7,54.5z"
		/>
	<path class="st2" d="M29.6,55.9c-0.1,0.1-0.4,0-0.5-0.2s-0.1-0.5,0-0.6s0.4,0,0.5,0.2C29.8,55.5,29.8,55.7,29.6,55.9z"/>
	<path class="st2" d="M30.9,57.2c-0.1,0.1-0.4,0.1-0.6-0.1s-0.3-0.5-0.1-0.6c0.2-0.1,0.5-0.1,0.6,0.1C31,56.8,31,57.1,30.9,57.2z"/>
	<path class="st2" d="M32.7,58c-0.1,0.2-0.3,0.3-0.6,0.2s-0.4-0.3-0.4-0.5s0.3-0.3,0.6-0.2S32.7,57.8,32.7,58z"/>
	<path class="st2" d="M34.6,58.1c0,0.2-0.2,0.4-0.5,0.4s-0.5-0.2-0.5-0.3s0.2-0.4,0.5-0.4S34.6,58,34.6,58.1z"/>
	<path class="st2" d="M36.4,57.8c0,0.2-0.2,0.4-0.5,0.4c-0.3,0-0.5-0.1-0.6-0.2s0.2-0.4,0.4-0.5S36.4,57.6,36.4,57.8z"/>
</g>
</svg>
