<?xml version="1.0" encoding="utf-8"?>
<!-- Generator: Adobe Illustrator 26.0.2, SVG Export Plug-In . SVG Version: 6.00 Build 0)  -->
<svg version="1.1" id="Layer_1" xmlns="http://www.w3.org/2000/svg" xmlns:xlink="http://www.w3.org/1999/xlink" x="0px" y="0px"
	 viewBox="0 0 85 85" style="enable-background:new 0 0 85 85;" xml:space="preserve">
<style type="text/css">
	.st0{fill:#353535;}
	.st1{fill:#FFFFFF;}
</style>
<circle id="back-65" class="st0" cx="42.5" cy="42.5" r="42.5"/>
<path class="st1" d="M42.5,23c6.3,0,7.1,0,9.6,0.1c1.5,0,3,0.3,4.4,0.8c2.1,0.8,3.7,2.4,4.5,4.5c0.5,1.4,0.8,2.9,0.8,4.4
	c0.1,2.5,0.1,3.3,0.1,9.6s0,7.1-0.1,9.6c0,1.5-0.3,3-0.8,4.4c-0.8,2.1-2.4,3.7-4.5,4.5c-1.4,0.5-2.9,0.8-4.4,0.8
	C49.6,62,48.9,62,42.5,62s-7.1,0-9.6-0.1c-1.5,0-3-0.3-4.4-0.8c-2.1-0.8-3.7-2.5-4.5-4.5c-0.5-1.4-0.8-2.9-0.8-4.4
	c-0.1-2.5-0.1-3.3-0.1-9.6s0-7.1,0.1-9.6c0-1.5,0.3-3,0.8-4.4c0.8-2,2.4-3.7,4.5-4.5c1.4-0.5,2.9-0.8,4.4-0.8
	C35.4,23.1,36.1,23,42.5,23 M42.5,18.8c-6.5,0-7.3,0-9.8,0.1c-2,0-3.9,0.4-5.8,1.1c-3.2,1.2-5.8,3.8-7,7c-0.7,1.9-1.1,3.8-1.1,5.8
	c-0.1,2.5-0.1,3.3-0.1,9.8s0,7.3,0.1,9.8c0.1,1.9,0.5,3.9,1.2,5.7c1.2,3.2,3.8,5.8,7,7c1.9,0.7,3.8,1.1,5.8,1.1
	c2.5,0.1,3.3,0.1,9.8,0.1s7.3,0,9.8-0.1c2,0,3.9-0.4,5.8-1.1c3.2-1.2,5.8-3.8,7-7c0.7-1.9,1.1-3.8,1.1-5.8c0.1-2.5,0.1-3.3,0.1-9.8
	s0-7.3-0.1-9.8c0-2-0.4-3.9-1.1-5.8c-1.2-3.2-3.8-5.8-7-7c-1.9-0.7-3.8-1.1-5.8-1.1C49.9,18.7,49.1,18.7,42.5,18.8L42.5,18.8z"/>
<path class="st1" d="M42.5,30.3c-6.7,0-12.2,5.5-12.2,12.2s5.5,12.2,12.2,12.2s12.2-5.5,12.2-12.2l0,0
	C54.7,35.8,49.2,30.3,42.5,30.3L42.5,30.3z M42.5,50.4c-4.4,0-7.9-3.6-7.9-7.9s3.6-7.9,7.9-7.9s7.9,3.6,7.9,7.9l0,0
	C50.4,46.9,46.9,50.4,42.5,50.4L42.5,50.4z"/>
<circle class="st1" cx="55.2" cy="29.8" r="2.9"/>
</svg>
