<?xml version="1.0" encoding="utf-8"?>
<!-- Generator: Adobe Illustrator 26.0.2, SVG Export Plug-In . SVG Version: 6.00 Build 0)  -->
<svg version="1.1" id="Layer_1" xmlns="http://www.w3.org/2000/svg" xmlns:xlink="http://www.w3.org/1999/xlink" x="0px" y="0px"
	 viewBox="0 0 85 85" style="enable-background:new 0 0 85 85;" xml:space="preserve">
<style type="text/css">
	.st0{fill:#353535;}
	.st1{fill:#FFFFFF;}
</style>
<circle id="back-57" class="st0" cx="42.5" cy="42.5" r="42.5"/>
<path id="Twitter-8" class="st1" d="M66.3,27.7c-1.8,0.8-3.7,1.3-5.6,1.5c2.1-1.2,3.6-3.1,4.3-5.4c-1.9,1.1-4,1.9-6.2,2.4
	c-3.7-3.9-9.9-4.1-13.8-0.4c-2,1.8-3.1,4.4-3.1,7.1c0,0.8,0.1,1.5,0.2,2.2C34.3,34.8,27,31.1,22,25c-2.6,4.4-1.3,10.1,3,13
	c-1.6-0.1-3.1-0.5-4.4-1.2v0.1c0,4.7,3.3,8.7,7.8,9.6c-1.4,0.4-2.9,0.4-4.4,0.2c1.3,4,4.9,6.7,9.1,6.8c-3.5,2.7-7.7,4.2-12.1,4.2
	c-0.8,0-1.6,0-2.3-0.1c4.5,2.9,9.7,4.4,15,4.4c18,0,27.8-14.9,27.8-27.8v-1.3C63.4,31.4,65,29.7,66.3,27.7z"/>
</svg>
